<svg width="226" height="165" viewBox="0 0 226 165" fill="none" xmlns="http://www.w3.org/2000/svg">
<path d="M20.7385 49.8242L62.5171 45.5179" stroke="white" stroke-width="4"/>
<path d="M42.6576 87.5709L146.466 76.58" stroke="white" stroke-width="4"/>
<path d="M37.9222 67.1832L151.379 56.0644" stroke="white" stroke-width="4"/>
<path d="M201.308 20.0212C185.224 47.5353 177.485 97.9197 177.485 97.9197L137.042 102.05C137.042 102.05 217.391 -7.49283 201.308 20.0212Z" fill="white"/>
<path d="M179.619 76.3538L216.961 71.7441C216.961 71.7441 138.079 198.448 157.226 153.575C176.373 108.702 179.619 76.3538 179.619 76.3538Z" fill="white"/>
<path d="M191.565 4.60881C197.617 3.83548 202.489 9.50157 200.818 15.3693L179.128 91.524C178.212 94.7373 175.5 97.1162 172.195 97.6043L41.7152 116.87C37.6881 117.464 33.8045 115.12 32.4544 111.28L6.89387 38.5709C5.09928 33.4661 8.46786 28.0066 13.8352 27.3207L191.565 4.60881Z" stroke="white" stroke-width="5"/>
</svg>
