<svg width="523" height="852" viewBox="0 0 523 852" fill="none" xmlns="http://www.w3.org/2000/svg">
<g filter="url(#filter0_f_6_2)">
<rect x="148" y="348" width="227" height="155" rx="19" fill="#42035C"/>
</g>
<path d="M196.92 442.12C197.48 442.12 198 442.347 198.48 442.8C198.96 443.28 199.2 443.827 199.2 444.44C199.2 445.053 198.92 445.627 198.36 446.16C197.827 446.72 197.133 447.213 196.28 447.64C195.427 448.067 194.533 448.4 193.6 448.64C192.693 448.88 191.867 449 191.12 449C189.467 449 188.147 448.84 187.16 448.52C186.173 448.227 185.36 447.88 184.72 447.48C184.08 447.107 183.48 446.76 182.92 446.44C182.36 446.147 181.68 446 180.88 446C180.373 446 179.96 446.08 179.64 446.24C179.347 446.427 179.013 446.6 178.64 446.76C178.293 446.947 177.8 447.04 177.16 447.04C176.493 447.04 175.933 446.787 175.48 446.28C175.027 445.773 174.8 445.227 174.8 444.64C174.8 443.6 175.267 442.907 176.2 442.56L184.48 439.48L188.08 440.36L180.32 443.24L182.6 441.92C183.533 441.92 184.347 442.053 185.04 442.32C185.76 442.613 186.44 442.933 187.08 443.28C187.72 443.627 188.373 443.933 189.04 444.2C189.733 444.493 190.52 444.64 191.4 444.64C192.12 444.64 192.72 444.52 193.2 444.28C193.707 444.04 194.147 443.773 194.52 443.48C194.973 443.133 195.373 442.813 195.72 442.52C196.093 442.253 196.493 442.12 196.92 442.12ZM196.76 427C196.76 429 196.427 430.867 195.76 432.6C195.093 434.333 194.147 435.867 192.92 437.2C191.72 438.507 190.28 439.533 188.6 440.28C186.947 441.027 185.133 441.4 183.16 441.4C181.187 441.4 179.373 441.027 177.72 440.28C176.067 439.533 174.627 438.507 173.4 437.2C172.2 435.867 171.267 434.333 170.6 432.6C169.933 430.867 169.6 429 169.6 427C169.6 425 169.933 423.133 170.6 421.4C171.267 419.667 172.2 418.147 173.4 416.84C174.627 415.507 176.067 414.467 177.72 413.72C179.373 412.973 181.187 412.6 183.16 412.6C185.133 412.6 186.947 412.973 188.6 413.72C190.28 414.467 191.72 415.507 192.92 416.84C194.147 418.147 195.093 419.667 195.76 421.4C196.427 423.133 196.76 425 196.76 427ZM191.56 427C191.56 425.213 191.2 423.6 190.48 422.16C189.76 420.693 188.773 419.533 187.52 418.68C186.267 417.827 184.813 417.4 183.16 417.4C181.507 417.4 180.053 417.827 178.8 418.68C177.547 419.533 176.56 420.68 175.84 422.12C175.147 423.56 174.8 425.187 174.8 427C174.8 428.787 175.147 430.413 175.84 431.88C176.56 433.32 177.547 434.467 178.8 435.32C180.053 436.173 181.507 436.6 183.16 436.6C184.813 436.6 186.267 436.173 187.52 435.32C188.773 434.467 189.76 433.32 190.48 431.88C191.2 430.413 191.56 428.787 191.56 427ZM219.475 419.6C220.169 419.6 220.742 419.84 221.195 420.32C221.649 420.773 221.875 421.347 221.875 422.04V432.2C221.875 435.027 221.089 437.267 219.515 438.92C217.942 440.573 215.675 441.4 212.715 441.4C209.755 441.4 207.489 440.573 205.915 438.92C204.369 437.267 203.595 435.027 203.595 432.2V422.04C203.595 421.347 203.822 420.773 204.275 420.32C204.729 419.84 205.302 419.6 205.995 419.6C206.689 419.6 207.262 419.84 207.715 420.32C208.169 420.773 208.395 421.347 208.395 422.04V432.2C208.395 433.827 208.755 435.04 209.475 435.84C210.195 436.613 211.275 437 212.715 437C214.182 437 215.275 436.613 215.995 435.84C216.715 435.04 217.075 433.827 217.075 432.2V422.04C217.075 421.347 217.302 420.773 217.755 420.32C218.209 419.84 218.782 419.6 219.475 419.6ZM234.392 438.56C234.392 439.253 234.165 439.84 233.712 440.32C233.259 440.773 232.685 441 231.992 441C231.299 441 230.725 440.773 230.272 440.32C229.819 439.84 229.592 439.253 229.592 438.56V422.04C229.592 421.347 229.819 420.773 230.272 420.32C230.725 419.84 231.299 419.6 231.992 419.6C232.685 419.6 233.259 419.84 233.712 420.32C234.165 420.773 234.392 421.347 234.392 422.04V438.56ZM231.952 417C231.045 417 230.405 416.853 230.032 416.56C229.659 416.267 229.472 415.747 229.472 415V414.24C229.472 413.467 229.672 412.947 230.072 412.68C230.499 412.387 231.139 412.24 231.992 412.24C232.925 412.24 233.579 412.387 233.952 412.68C234.325 412.973 234.512 413.493 234.512 414.24V415C234.512 415.773 234.312 416.307 233.912 416.6C233.512 416.867 232.859 417 231.952 417ZM251.645 419.2C253.165 419.2 254.485 419.36 255.605 419.68C256.752 420 257.632 420.453 258.245 421.04C258.885 421.6 259.205 422.28 259.205 423.08C259.205 423.613 259.045 424.12 258.725 424.6C258.405 425.053 257.938 425.28 257.325 425.28C256.898 425.28 256.538 425.227 256.245 425.12C255.978 424.987 255.738 424.827 255.525 424.64C255.312 424.453 255.058 424.28 254.765 424.12C254.498 423.96 254.085 423.84 253.525 423.76C252.992 423.653 252.592 423.6 252.325 423.6C250.965 423.6 249.805 423.893 248.845 424.48C247.912 425.067 247.192 425.867 246.685 426.88C246.178 427.867 245.925 429.013 245.925 430.32C245.925 431.6 246.178 432.747 246.685 433.76C247.218 434.747 247.938 435.533 248.845 436.12C249.778 436.707 250.845 437 252.045 437C252.712 437 253.285 436.96 253.765 436.88C254.245 436.8 254.645 436.68 254.965 436.52C255.338 436.307 255.672 436.08 255.965 435.84C256.258 435.6 256.698 435.48 257.285 435.48C257.978 435.48 258.512 435.707 258.885 436.16C259.258 436.587 259.445 437.12 259.445 437.76C259.445 438.427 259.072 439.04 258.325 439.6C257.578 440.133 256.592 440.573 255.365 440.92C254.165 441.24 252.858 441.4 251.445 441.4C249.338 441.4 247.512 440.92 245.965 439.96C244.418 438.973 243.218 437.64 242.365 435.96C241.538 434.28 241.125 432.4 241.125 430.32C241.125 428.133 241.565 426.213 242.445 424.56C243.352 422.88 244.592 421.573 246.165 420.64C247.765 419.68 249.592 419.2 251.645 419.2ZM268.506 441C267.813 441 267.24 440.773 266.786 440.32C266.333 439.84 266.106 439.253 266.106 438.56V413.84C266.106 413.147 266.333 412.573 266.786 412.12C267.24 411.64 267.813 411.4 268.506 411.4C269.2 411.4 269.773 411.64 270.226 412.12C270.68 412.573 270.906 413.147 270.906 413.84V438.56C270.906 439.253 270.68 439.84 270.226 440.32C269.773 440.773 269.2 441 268.506 441ZM281.226 419.6C281.84 419.6 282.373 419.853 282.826 420.36C283.28 420.867 283.506 421.36 283.506 421.84C283.506 422.48 283.186 423.08 282.546 423.64L270.506 434.72L270.306 429.2L279.466 420.36C279.973 419.853 280.56 419.6 281.226 419.6ZM281.826 440.96C281.133 440.96 280.546 440.693 280.066 440.16L272.666 432.32L276.306 428.96L283.506 436.8C284.013 437.333 284.266 437.933 284.266 438.6C284.266 439.293 283.986 439.867 283.426 440.32C282.893 440.747 282.36 440.96 281.826 440.96ZM304.2 413C306.76 413 308.666 413.6 309.92 414.8C311.173 416 311.8 417.773 311.8 420.12C311.8 421.373 311.493 422.48 310.88 423.44C310.266 424.373 309.36 425.107 308.16 425.64C306.96 426.147 305.48 426.4 303.72 426.4L303.88 424.6C304.706 424.6 305.653 424.72 306.72 424.96C307.786 425.173 308.813 425.573 309.8 426.16C310.813 426.72 311.64 427.52 312.28 428.56C312.946 429.573 313.28 430.88 313.28 432.48C313.28 434.24 312.986 435.68 312.4 436.8C311.84 437.92 311.093 438.787 310.16 439.4C309.226 440.013 308.226 440.44 307.16 440.68C306.093 440.893 305.066 441 304.08 441H294.12C293.426 441 292.84 440.773 292.36 440.32C291.906 439.84 291.68 439.253 291.68 438.56V415.44C291.68 414.747 291.906 414.173 292.36 413.72C292.84 413.24 293.426 413 294.12 413H304.2ZM303.48 417.72H296.36L296.88 417.08V424.32L296.4 423.96H303.6C304.373 423.96 305.066 423.707 305.68 423.2C306.293 422.693 306.6 421.96 306.6 421C306.6 419.853 306.306 419.027 305.72 418.52C305.16 417.987 304.413 417.72 303.48 417.72ZM303.8 428.68H296.52L296.88 428.36V436.8L296.48 436.4H304.08C305.306 436.4 306.28 436.08 307 435.44C307.72 434.773 308.08 433.787 308.08 432.48C308.08 431.28 307.84 430.413 307.36 429.88C306.88 429.347 306.306 429.013 305.64 428.88C304.973 428.747 304.36 428.68 303.8 428.68ZM324.811 438.56C324.811 439.253 324.584 439.84 324.131 440.32C323.677 440.773 323.104 441 322.411 441C321.717 441 321.144 440.773 320.691 440.32C320.237 439.84 320.011 439.253 320.011 438.56V422.04C320.011 421.347 320.237 420.773 320.691 420.32C321.144 419.84 321.717 419.6 322.411 419.6C323.104 419.6 323.677 419.84 324.131 420.32C324.584 420.773 324.811 421.347 324.811 422.04V438.56ZM322.371 417C321.464 417 320.824 416.853 320.451 416.56C320.077 416.267 319.891 415.747 319.891 415V414.24C319.891 413.467 320.091 412.947 320.491 412.68C320.917 412.387 321.557 412.24 322.411 412.24C323.344 412.24 323.997 412.387 324.371 412.68C324.744 412.973 324.931 413.493 324.931 414.24V415C324.931 415.773 324.731 416.307 324.331 416.6C323.931 416.867 323.277 417 322.371 417ZM337.744 438.56C337.744 439.253 337.504 439.84 337.024 440.32C336.57 440.773 335.997 441 335.304 441C334.637 441 334.077 440.773 333.624 440.32C333.17 439.84 332.944 439.253 332.944 438.56V413.84C332.944 413.147 333.17 412.573 333.624 412.12C334.104 411.64 334.69 411.4 335.384 411.4C336.077 411.4 336.637 411.64 337.064 412.12C337.517 412.573 337.744 413.147 337.744 413.84V438.56ZM351.325 438.56C351.325 439.253 351.085 439.84 350.605 440.32C350.152 440.773 349.578 441 348.885 441C348.218 441 347.658 440.773 347.205 440.32C346.752 439.84 346.525 439.253 346.525 438.56V413.84C346.525 413.147 346.752 412.573 347.205 412.12C347.685 411.64 348.272 411.4 348.965 411.4C349.658 411.4 350.218 411.64 350.645 412.12C351.098 412.573 351.325 413.147 351.325 413.84V438.56Z" fill="#E9B6FF"/>
<defs>
<filter id="filter0_f_6_2" x="0.600006" y="200.6" width="521.8" height="449.8" filterUnits="userSpaceOnUse" color-interpolation-filters="sRGB">
<feFlood flood-opacity="0" result="BackgroundImageFix"/>
<feBlend mode="normal" in="SourceGraphic" in2="BackgroundImageFix" result="shape"/>
<feGaussianBlur stdDeviation="73.7" result="effect1_foregroundBlur_6_2"/>
</filter>
</defs>
</svg>
