<svg width="226" height="226" viewBox="0 0 226 226" fill="none" xmlns="http://www.w3.org/2000/svg">
<rect width="226" height="226" fill="white"/>
<rect width="226" height="165" transform="translate(0 30)" fill="white"/>
<path d="M20.7385 79.8242L62.5171 75.5179" stroke="#6200EE" stroke-opacity="0.933333" stroke-width="4"/>
<path d="M42.6576 117.571L146.466 106.58" stroke="#6200EE" stroke-opacity="0.933333" stroke-width="4"/>
<path d="M37.9222 97.1832L151.379 86.0644" stroke="#6200EE" stroke-opacity="0.933333" stroke-width="4"/>
<path d="M201.308 50.0212C185.224 77.5353 177.485 127.92 177.485 127.92L137.042 132.05C137.042 132.05 217.391 22.5072 201.308 50.0212Z" fill="#6200EE"/>
<path d="M179.619 106.354L216.961 101.744C216.961 101.744 138.079 228.448 157.226 183.575C176.373 138.702 179.619 106.354 179.619 106.354Z" fill="#6200EE"/>
<path d="M191.565 34.6088C197.617 33.8355 202.489 39.5016 200.818 45.3693L179.128 121.524C178.212 124.737 175.5 127.116 172.195 127.604L41.7152 146.87C37.6881 147.464 33.8045 145.12 32.4544 141.28L6.89387 68.5709C5.09928 63.4661 8.46786 58.0066 13.8352 57.3207L191.565 34.6088Z" stroke="#6200EE" stroke-width="5"/>
</svg>
